<?xml version="1.0" standalone="no"?>
<!DOCTYPE svg PUBLIC "-//W3C//DTD SVG 20010904//EN"
	"http://www.w3.org/TR/2001/REC-SVG-20010904/DTD/svg10.dtd">
<svg version="1.0" xmlns="http://www.w3.org/2000/svg"
	 width="778.000000pt" height="778.000000pt" viewBox="0 0 778.000000 778.000000"
	 preserveAspectRatio="xMidYMid meet">
	<metadata>
		Created by potrace 1.14, written by Peter Selinger 2001-2017
	</metadata>
	<g transform="translate(0.000000,778.000000) scale(0.100000,-0.100000)"
	   fill="#000000" stroke="none">
		<path d="M1735 7745 c-22 -6 -43 -12 -48 -13 -4 -1 -22 -8 -41 -16 -49 -20
-67 -53 -62 -109 4 -39 1 -48 -22 -70 -31 -29 -102 -40 -121 -20 -23 25 -108
19 -171 -10 -72 -34 -134 -106 -155 -180 -32 -114 -22 -162 50 -241 35 -38 45
-66 24 -66 -7 0 -9 -9 -5 -23 6 -27 -24 -67 -50 -67 -27 0 -94 -60 -116 -103
-24 -47 -27 -101 -9 -145 10 -25 10 -35 -2 -58 -18 -35 -52 -172 -68 -272 -7
-40 -17 -78 -23 -86 -6 -7 -91 -54 -189 -104 -184 -95 -237 -126 -237 -143 0
-6 -13 -24 -30 -41 -16 -16 -30 -39 -30 -50 0 -31 37 -76 81 -99 76 -38 289
-94 394 -103 82 -7 92 -12 100 -53 3 -20 25 -74 48 -122 39 -83 41 -90 40
-181 0 -52 -3 -114 -6 -137 -7 -44 -35 -82 -68 -88 -28 -6 -39 -14 -39 -31 0
-8 -5 -22 -10 -32 -16 -27 -69 -180 -81 -231 -15 -64 -18 -161 -6 -189 6 -13
42 -43 79 -69 52 -34 68 -49 63 -62 -4 -9 -8 -20 -9 -26 -2 -5 -6 -17 -9 -25
-8 -20 -66 -229 -72 -257 -2 -13 -6 -26 -8 -31 -3 -4 -8 -26 -11 -48 -4 -22
-9 -51 -11 -64 -41 -204 -64 -680 -41 -870 16 -140 33 -215 52 -230 7 -7 12
-15 9 -19 -2 -4 -7 -32 -10 -62 -3 -30 -8 -61 -10 -69 -2 -8 -7 -39 -10 -69
-4 -30 -8 -63 -11 -74 -2 -10 -6 -45 -9 -76 -4 -31 -8 -67 -10 -81 -2 -14 -7
-52 -11 -85 -3 -33 -8 -69 -10 -80 -2 -11 -6 -38 -9 -60 -6 -57 -15 -115 -22
-150 -9 -41 -10 -45 -13 -47 -3 -4 -11 -42 -11 -53 -1 -25 84 -282 131 -395
28 -69 57 -138 62 -155 6 -16 38 -82 71 -145 33 -63 65 -125 71 -137 6 -13 14
-23 19 -23 4 0 7 -6 7 -14 0 -8 3 -16 8 -18 10 -5 52 -66 52 -77 0 -5 3 -11 8
-13 4 -2 29 -34 56 -73 57 -81 84 -107 108 -101 10 2 21 0 24 -5 8 -14 40 -11
53 5 7 8 20 12 30 9 20 -5 65 37 108 101 16 23 31 43 36 44 4 2 7 10 7 18 0 8
5 14 10 14 6 0 10 5 10 10 0 10 8 21 37 54 7 7 35 55 64 105 29 50 53 91 54
91 1 0 24 -33 51 -73 88 -132 364 -394 449 -427 11 -4 52 -23 90 -42 39 -19
101 -45 138 -58 37 -13 65 -25 63 -28 -3 -2 -63 -6 -135 -8 -238 -6 -309 -17
-406 -59 -27 -12 -55 -28 -62 -36 -16 -20 -24 -67 -12 -75 11 -7 -7 -34 -23
-34 -6 0 -23 -10 -40 -21 -25 -18 -29 -26 -25 -56 6 -44 37 -64 82 -53 6 1 37
4 70 6 33 3 75 6 93 9 l34 4 -37 -34 c-20 -19 -42 -47 -50 -62 -12 -23 -12
-30 2 -54 24 -40 93 -50 93 -14 0 23 29 25 35 4 6 -18 13 -20 48 -16 23 3 60
11 82 17 22 6 51 13 65 15 14 2 70 13 125 25 220 47 228 49 335 56 47 3 92 6
100 5 8 0 47 7 85 14 39 8 93 17 120 19 178 18 212 27 238 62 30 41 29 100 -4
157 -41 68 -38 82 19 100 59 19 163 38 222 42 48 3 94 18 104 33 3 5 43 4 98
-3 208 -29 238 -31 518 -40 211 -7 248 -11 299 -29 67 -24 162 -49 264 -67
l57 -11 -38 -27 c-20 -15 -75 -47 -122 -70 -112 -57 -185 -106 -240 -161 -56
-56 -104 -126 -106 -154 -2 -34 -25 -74 -45 -79 -24 -7 -24 -33 -1 -46 20 -11
32 -5 152 62 30 17 60 36 66 42 6 6 32 22 57 35 67 35 77 18 26 -45 -22 -28
-47 -65 -56 -84 -14 -32 -13 -36 2 -47 14 -11 22 -10 41 3 16 10 24 12 24 3 0
-6 7 -18 15 -26 24 -24 63 -9 176 67 57 39 118 77 134 85 17 8 42 22 56 31 24
15 28 15 65 -3 26 -13 38 -25 36 -36 -5 -32 44 -105 87 -127 12 -7 43 -13 68
-13 36 0 51 6 74 28 16 15 29 32 29 37 0 5 6 23 14 40 8 18 16 56 19 86 2 29
10 57 16 61 7 4 11 11 10 16 -2 5 24 29 58 54 93 68 107 119 51 180 -18 19
-43 48 -55 64 -22 28 -22 31 -6 49 10 10 41 30 69 44 28 14 63 36 77 49 14 13
29 24 32 24 3 0 26 19 50 43 65 62 122 109 170 137 66 39 306 264 380 355 22
28 43 52 46 55 31 25 319 467 319 489 0 5 4 11 9 13 10 3 20 23 102 189 86
174 182 402 203 484 2 6 8 23 14 38 7 16 12 32 12 36 0 10 39 141 50 166 5 11
11 31 13 45 3 14 28 111 56 215 28 105 54 206 57 225 3 19 8 38 10 41 2 3 6
21 9 40 3 19 14 79 25 134 10 55 21 120 24 145 3 25 8 56 10 70 17 91 25 298
14 357 -9 46 -29 106 -41 121 -6 7 -19 11 -28 9 -27 -7 -52 55 -54 133 -2 67
-12 166 -20 210 -3 14 -7 41 -9 60 -5 38 -15 100 -22 140 -2 14 -8 52 -14 85
-5 33 -19 94 -30 135 -12 41 -25 91 -30 110 -13 52 -59 172 -76 198 -8 12 -11
22 -8 22 4 0 -1 9 -10 19 -10 11 -23 18 -30 15 -6 -2 -19 9 -29 26 -17 27 -54
124 -62 160 -7 33 -47 131 -58 143 -24 25 -66 125 -60 145 7 28 -30 46 -94 44
-47 -1 -55 2 -74 29 -22 32 -67 59 -86 52 -6 -2 -14 1 -18 6 -12 20 -50 11
-85 -20 -87 -75 -213 -192 -308 -286 -57 -57 -107 -103 -111 -103 -7 0 -77
-57 -157 -129 -22 -20 -65 -56 -94 -81 -102 -85 -155 -135 -326 -307 l-171
-171 -29 19 c-40 26 -250 119 -368 164 -87 32 -143 65 -195 115 -9 8 -57 42
-106 75 -50 33 -92 62 -95 65 -3 3 -25 16 -50 29 -25 14 -74 42 -110 64 -82
50 -102 61 -268 155 -131 74 -242 123 -262 117 -12 -4 -20 -2 -20 5 0 11 -76
137 -95 156 -5 6 -14 11 -20 11 -5 1 -14 10 -20 20 -5 10 -13 20 -16 23 -3 3
-32 41 -66 85 -50 66 -113 146 -186 235 -17 21 -145 164 -205 229 -45 50 -49
58 -41 85 5 17 15 34 23 38 12 7 14 26 10 96 -3 48 -6 94 -6 102 0 8 -18 52
-40 98 -32 65 -58 100 -120 163 -44 43 -84 79 -89 79 -5 0 -9 6 -9 14 0 14
-11 29 -81 107 -19 22 -50 64 -67 92 -30 49 -31 56 -23 107 15 93 -13 156
-112 253 -85 83 -162 112 -238 90 -25 -7 -54 -21 -65 -31 -41 -37 -110 -89
-126 -95 -32 -11 -76 13 -97 54 -28 54 -85 104 -134 119 -57 17 -144 20 -192
5z"/>
	</g>
</svg>
